<svg width="48" height="48" viewBox="0 0 48 48" fill="none" xmlns="http://www.w3.org/2000/svg">
<g id="icon-pdam" clip-path="url(#clip0_395_1384)">
<g id="Group">
<path id="Vector" d="M37.3449 5.53087H14.225C13.2529 5.53087 12.4648 4.74281 12.4648 3.77072C12.4648 2.79862 13.2529 2.01056 14.225 2.01056H37.3449C38.317 2.01056 39.105 2.79862 39.105 3.77072C39.105 4.74281 38.317 5.53087 37.3449 5.53087Z" fill="#A4BBEC"/>
<path id="Vector_2" d="M37.3426 2.01056H34.4883C35.4604 2.01056 36.2484 2.79862 36.2484 3.77072C36.2484 4.74281 35.4604 5.53087 34.4883 5.53087H37.3426C38.3147 5.53087 39.1027 4.74281 39.1027 3.77072C39.1027 2.79853 38.3147 2.01056 37.3426 2.01056Z" fill="#6C87C7"/>
<g id="Group_2">
<path id="Vector_3" d="M24.0771 12.7389V5.75747H27.491V12.7389H24.0771ZM19.7423 22.0383V13.7608H0.570844C0.419447 13.7608 0.27425 13.821 0.167196 13.928C0.0601423 14.0351 0 14.1803 0 14.3317L0 21.4674C0 21.6188 0.0601423 21.764 0.167196 21.8711C0.27425 21.9781 0.419447 22.0383 0.570844 22.0383H19.7423ZM31.8256 13.7608H40.17C43.7063 13.7608 46.5728 16.6275 46.5728 20.1637V31.5527H38.2954V23.0595C38.2954 22.4955 37.8382 22.0384 37.2743 22.0384H31.8256V13.7608Z" fill="#A4BBEC"/>
</g>
<path id="Vector_4" d="M40.1707 13.7608H37.3164C40.8527 13.7608 43.7192 16.6275 43.7192 20.1637V30.1255H46.5736V20.1637C46.5736 16.6274 43.7069 13.7608 40.1707 13.7608Z" fill="#6C87C7"/>
<path id="Vector_5" d="M37.5922 32.9797H47.274C47.4663 32.9797 47.6507 32.9034 47.7866 32.7674C47.9226 32.6314 47.999 32.4471 47.999 32.2548V30.8504C47.999 30.6581 47.9226 30.4737 47.7866 30.3378C47.6507 30.2018 47.4663 30.1254 47.274 30.1254H37.5922C37.3999 30.1254 37.2155 30.2018 37.0795 30.3378C36.9436 30.4737 36.8672 30.6581 36.8672 30.8504V32.2548C36.8672 32.4471 36.9436 32.6314 37.0795 32.7674C37.2155 32.9034 37.3999 32.9797 37.5922 32.9797Z" fill="#3E5490"/>
<path id="Vector_6" d="M47.2762 30.1255H44.4219C44.6141 30.1255 44.7985 30.2019 44.9345 30.3379C45.0705 30.4738 45.1468 30.6582 45.1468 30.8505V32.2549C45.1468 32.4471 45.0705 32.6315 44.9345 32.7675C44.7985 32.9035 44.6141 32.9798 44.4219 32.9798H47.2762C47.4685 32.9798 47.6529 32.9035 47.7888 32.7675C47.9248 32.6315 48.0012 32.4471 48.0012 32.2549V30.8505C48.0012 30.6582 47.9248 30.4738 47.7888 30.3379C47.6529 30.2019 47.4685 30.1255 47.2762 30.1255Z" fill="#31426F"/>
<path id="Vector_7" d="M8.80078 13.7608V22.0383C8.80078 22.8264 9.43978 23.4654 10.2279 23.4654C11.0162 23.4654 11.6551 22.8264 11.6551 22.0383V13.7608C11.6551 12.9727 11.0162 12.3337 10.2279 12.3337C9.43978 12.3337 8.80078 12.9726 8.80078 13.7608ZM23.4588 7.18453H28.1091C28.8973 7.18453 29.5362 6.54553 29.5362 5.75737V1.78397C29.5362 0.995812 28.8972 0.356812 28.1091 0.356812H23.4588C22.6706 0.356812 22.0316 0.995812 22.0316 1.78397V5.75747C22.0316 6.54562 22.6706 7.18453 23.4588 7.18453Z" fill="#3E5490"/>
<path id="Vector_8" d="M28.1082 0.356812H25.2539C26.0421 0.356812 26.6811 0.995812 26.6811 1.78397V5.75747C26.6811 6.54562 26.0422 7.18462 25.2539 7.18462H28.1082C28.8965 7.18462 29.5354 6.54562 29.5354 5.75747V1.78397C29.5354 0.995718 28.8964 0.356812 28.1082 0.356812Z" fill="#31426F"/>
<path id="Vector_9" d="M37.9648 43.1759C37.9648 45.6431 39.9658 47.6432 42.4339 47.6432C44.9022 47.6432 46.903 45.6431 46.903 43.1759C46.903 41.0241 43.5034 37.5285 42.6343 36.6699C42.5809 36.6171 42.5089 36.5875 42.4338 36.5875C42.3587 36.5875 42.2867 36.6171 42.2334 36.6699C41.3644 37.5284 37.9648 41.0241 37.9648 43.1759Z" fill="#2B38BA"/>
<path id="Vector_10" d="M42.2348 36.6697C41.8133 37.0874 41.4041 37.5175 41.0078 37.9593C42.3156 39.4167 44.0497 41.639 44.0497 43.1759C44.0497 45.1441 42.7758 46.8138 41.0078 47.4092C41.4676 47.5643 41.9497 47.6433 42.435 47.6433C44.9032 47.6433 46.904 45.6432 46.904 43.176C46.904 41.0242 43.5046 37.5286 42.6354 36.67C42.5822 36.6172 42.5102 36.5875 42.4352 36.5874C42.3602 36.5873 42.2881 36.6169 42.2348 36.6697Z" fill="#3C4CD9"/>
<path id="Vector_11" d="M30.5722 24.4873H20.9988C19.4224 24.4873 18.1445 23.2094 18.1445 21.633V14.1661C18.1445 12.5897 19.4224 11.3118 20.9988 11.3118H30.5722C32.1486 11.3118 33.4265 12.5897 33.4265 14.1661V21.633C33.4265 23.2094 32.1485 24.4873 30.5722 24.4873Z" fill="#3E5490"/>
<path id="Vector_12" d="M30.5692 11.3118H27.7148C29.2912 11.3118 30.5692 12.5897 30.5692 14.1661V21.633C30.5692 23.2094 29.2912 24.4873 27.7148 24.4873H30.5692C32.1456 24.4873 33.4235 23.2094 33.4235 21.633V14.1661C33.4235 12.5897 32.1456 11.3118 30.5692 11.3118Z" fill="#31426F"/>
</g>
</g>
<defs>
<clipPath id="clip0_395_1384">
<rect width="48" height="48" fill="white"/>
</clipPath>
</defs>
</svg>
